<mxfile host="app.diagrams.net" modified="2022-09-07T12:13:05.120Z" agent="5.0 (X11; Linux x86_64) AppleWebKit/537.36 (KHTML, like Gecko) Chrome/104.0.0.0 Safari/537.36" etag="B_wyu_Yg9NBi6jTTCSXc" version="20.2.8" type="github">
  <diagram id="_oMf0yWnpaYTupKrIbih" name="第 1 页">
    <mxGraphModel dx="1990" dy="1072" grid="1" gridSize="10" guides="1" tooltips="1" connect="1" arrows="1" fold="1" page="1" pageScale="1" pageWidth="827" pageHeight="1169" math="0" shadow="0">
      <root>
        <mxCell id="0" />
        <mxCell id="1" parent="0" />
        <mxCell id="uO8Ne_abdFNjRcDg8nih-1" value="VideoFrame" style="rounded=0;whiteSpace=wrap;html=1;" vertex="1" parent="1">
          <mxGeometry x="680" y="310" width="110" height="50" as="geometry" />
        </mxCell>
        <mxCell id="uO8Ne_abdFNjRcDg8nih-5" value="" style="edgeStyle=orthogonalEdgeStyle;rounded=0;orthogonalLoop=1;jettySize=auto;html=1;" edge="1" parent="1" source="uO8Ne_abdFNjRcDg8nih-2" target="uO8Ne_abdFNjRcDg8nih-1">
          <mxGeometry relative="1" as="geometry" />
        </mxCell>
        <mxCell id="uO8Ne_abdFNjRcDg8nih-2" value="StreamTextureWrapperImpl" style="rounded=0;whiteSpace=wrap;html=1;" vertex="1" parent="1">
          <mxGeometry x="480" y="310" width="170" height="50" as="geometry" />
        </mxCell>
        <mxCell id="uO8Ne_abdFNjRcDg8nih-7" value="" style="edgeStyle=orthogonalEdgeStyle;rounded=0;orthogonalLoop=1;jettySize=auto;html=1;" edge="1" parent="1" source="uO8Ne_abdFNjRcDg8nih-3" target="uO8Ne_abdFNjRcDg8nih-6">
          <mxGeometry relative="1" as="geometry" />
        </mxCell>
        <mxCell id="uO8Ne_abdFNjRcDg8nih-3" value="StreamTextureHost" style="rounded=0;whiteSpace=wrap;html=1;" vertex="1" parent="1">
          <mxGeometry x="96" y="310" width="170" height="50" as="geometry" />
        </mxCell>
        <mxCell id="uO8Ne_abdFNjRcDg8nih-8" value="" style="edgeStyle=orthogonalEdgeStyle;rounded=0;orthogonalLoop=1;jettySize=auto;html=1;" edge="1" parent="1" source="uO8Ne_abdFNjRcDg8nih-6" target="uO8Ne_abdFNjRcDg8nih-2">
          <mxGeometry relative="1" as="geometry" />
        </mxCell>
        <mxCell id="uO8Ne_abdFNjRcDg8nih-6" value="StreamTextureProxy" style="rounded=0;whiteSpace=wrap;html=1;" vertex="1" parent="1">
          <mxGeometry x="290" y="310" width="170" height="50" as="geometry" />
        </mxCell>
      </root>
    </mxGraphModel>
  </diagram>
</mxfile>
